# xmcd
#
# Track frame offsets:
#	150
#	9405
#	26205
#	42121
#	50850
#	60288
#	78604
#	89557
#	108923
#	116271
#	133017
#	146659
#
# Disc length: 2082 seconds
#
# Revision: 0
# Processed by: cddbd v1.4PL0 Copyright (c) Steve Scherf et al.
# Submitted via: dBpowerAMP V4.0
#
DISCID=9f08200c
DTITLE=Middle Cross - Lights of Home
DYEAR=2001
DGENRE=Gospel
TTITLE0=The Lights f Home
TTITLE1=The Next Cloud
TTITLE2=Heaven Holds All For Me
TTITLE3=Victory Road
TTITLE4=Cross To the Other Side of Jordon
TTITLE5=Without Jesus
TTITLE6=These Are They
TTITLE7=Plan of Salvation
TTITLE8=Someday
TTITLE9=Forgivien, Forgotten, Forever
TTITLE10=Stand By Me
TTITLE11=Sweet, Sweet Spirit
EXTD=
EXTT0=
EXTT1=
EXTT2=
EXTT3=
EXTT4=
EXTT5=
EXTT6=
EXTT7=
EXTT8=
EXTT9=
EXTT10=
EXTT11=
PLAYORDER=
